<svg width="954" height="305" viewBox="0 0 954 305" fill="none" xmlns="http://www.w3.org/2000/svg">
<path d="M24 281H80V305H20C8.95431 305 0 296.046 0 285V225H24V281ZM954 285C954 296.046 945.046 305 934 305H874V281H930V225H954V285ZM335.195 179.822C335.195 199.094 342.557 207.105 361.179 207.105C379.151 207.105 389.328 199.31 389.328 178.09V117.461H412.714V225.077H391.061V203.641H390.194C384.998 215.983 373.521 227.243 352.518 227.243C324.368 227.243 311.81 208.405 311.81 183.937V117.461H335.195V179.822ZM124.173 115.295C149.507 115.295 168.562 127.854 168.562 152.322V154.271H146.26V151.673C146.26 141.712 142.795 134.566 123.523 134.566C106.417 134.566 102.303 139.114 102.303 147.342C102.303 155.57 106.201 157.952 121.358 160.983L139.547 164.448C160.334 168.562 171.161 177.873 171.161 195.629C171.161 215.55 155.353 227.242 128.07 227.242C96.6734 227.242 80.217 214.9 80.2168 188.7V188.267H102.736V192.164C102.736 203.857 107.933 208.188 128.504 208.188C145.826 208.187 149.074 204.29 149.074 196.278C149.074 187.617 143.877 185.019 128.07 182.204L111.397 179.389C92.1262 175.924 80.0002 167.263 80 147.775C80 128.287 96.0236 115.295 124.173 115.295ZM459.125 134.566H459.558C464.321 124.822 476.664 115.295 495.719 115.295C525.384 115.295 540.974 137.165 540.975 171.16C540.975 205.372 524.518 227.242 494.42 227.242C475.798 227.242 463.239 219.88 458.042 207.321H457.176V225.077H435.739V80H459.125V134.566ZM212.564 135.433H213.431C218.411 125.689 229.887 115.295 249.375 115.295C277.524 115.295 289.434 133.701 289.434 157.303V225.077H266.048V162.716C266.048 143.444 259.985 135.433 240.28 135.433C221.226 135.433 212.565 142.795 212.564 163.148V225.077H189.179V80H212.564V135.433ZM582.193 135.433H583.06C588.04 125.689 599.516 115.295 619.004 115.295C647.153 115.295 659.062 133.701 659.062 157.303V225.077H635.677V162.716C635.677 143.444 629.614 135.433 609.91 135.433C590.855 135.433 582.193 142.795 582.193 163.148V225.077H558.808V80H582.193V135.433ZM488.356 135.216C469.518 135.216 459.125 143.661 459.125 161.633V180.904C459.125 198.876 469.518 207.321 488.356 207.321C509.144 207.321 517.806 197.794 517.806 171.16C517.806 144.743 508.927 135.216 488.356 135.216ZM80 24H24V80H0V20C0 8.95431 8.95431 0 20 0H80V24ZM934 0C945.046 0 954 8.95431 954 20V80H930V24H874V0H934Z" fill="black"/>
<path d="M24 80V24H80V0H20C8.95431 0 0 8.95431 0 20V80H24Z" fill="black"/>
</svg>
