<svg width="954" height="306" viewBox="0 0 954 306" fill="none" xmlns="http://www.w3.org/2000/svg">
<path d="M24 281.418H80V305.418H20C8.95431 305.418 0 296.464 0 285.418V225.418H24V281.418ZM954 285.418C954 296.464 945.046 305.418 934 305.418H874V281.418H930V225.418H954V285.418ZM335.195 180.24C335.195 199.511 342.557 207.523 361.179 207.523C379.151 207.523 389.328 199.728 389.328 178.508V117.879H412.714V225.495H391.061V204.059H390.194C384.998 216.401 373.521 227.661 352.518 227.661C324.368 227.661 311.81 208.823 311.81 184.354V117.879H335.195V180.24ZM124.173 115.713C149.507 115.713 168.562 128.272 168.562 152.74V154.688H146.26V152.091C146.26 142.13 142.795 134.984 123.523 134.984C106.417 134.984 102.303 139.532 102.303 147.76C102.303 155.988 106.201 158.37 121.358 161.401L139.547 164.866C160.334 168.98 171.161 178.291 171.161 196.047C171.161 215.968 155.353 227.66 128.07 227.66C96.6734 227.66 80.217 215.318 80.2168 189.118V188.685H102.736V192.582C102.736 204.275 107.933 208.605 128.504 208.605C145.826 208.605 149.074 204.708 149.074 196.696C149.074 188.035 143.877 185.437 128.07 182.622L111.397 179.807C92.1262 176.342 80.0002 167.681 80 148.193C80 128.705 96.0236 115.713 124.173 115.713ZM459.125 134.984H459.558C464.321 125.24 476.664 115.713 495.719 115.713C525.384 115.713 540.974 137.583 540.975 171.578C540.975 205.79 524.518 227.66 494.42 227.66C475.798 227.66 463.239 220.298 458.042 207.739H457.176V225.495H435.739V80.418H459.125V134.984ZM212.564 135.851H213.431C218.411 126.107 229.887 115.713 249.375 115.713C277.524 115.713 289.434 134.119 289.434 157.721V225.495H266.048V163.134C266.048 143.862 259.985 135.851 240.28 135.851C221.226 135.851 212.565 143.213 212.564 163.566V225.495H189.179V80.418H212.564V135.851ZM582.193 135.851H583.06C588.04 126.107 599.516 115.713 619.004 115.713C647.153 115.713 659.062 134.119 659.062 157.721V225.495H635.677V163.134C635.677 143.862 629.614 135.851 609.91 135.851C590.855 135.851 582.193 143.213 582.193 163.566V225.495H558.808V80.418H582.193V135.851ZM488.356 135.634C469.518 135.634 459.125 144.079 459.125 162.051V181.322C459.125 199.294 469.518 207.739 488.356 207.739C509.144 207.739 517.806 198.212 517.806 171.578C517.806 145.161 508.927 135.634 488.356 135.634ZM80 24.418H24V80.418H0V20.418C0 9.37227 8.95431 0.417969 20 0.417969H80V24.418ZM934 0.417969C945.046 0.417969 954 9.37227 954 20.418V80.418H930V24.418H874V0.417969H934Z" fill="#EEEEEE"/>
<path d="M24 80.418V24.418H80V0.417969H20C8.95431 0.417969 0 9.37227 0 20.418V80.418H24Z" fill="#EEEEEE"/>
</svg>
