<svg width="25" height="25" viewBox="0 0 25 25" fill="none" xmlns="http://www.w3.org/2000/svg">
<path d="M10.7593 19.1087C11.1561 18.9897 11.3812 18.5716 11.2622 18.1748C11.1431 17.7781 10.725 17.5529 10.3283 17.6719L10.7593 19.1087ZM4.7957 15.1213C4.39386 15.0208 3.98665 15.2651 3.88619 15.667C3.78573 16.0688 4.03005 16.476 4.4319 16.5765L4.7957 15.1213ZM15.7238 20.9317V21.6817H17.2238V20.9317H15.7238ZM16.4738 17.6533L15.7261 17.5945L15.7238 17.6238V17.6533H16.4738ZM15.6775 15.4423L15.5944 14.6969L14.0745 14.8663L15.139 15.9643L15.6775 15.4423ZM21.1331 9.51226L21.8831 9.51226L21.8831 9.51212L21.1331 9.51226ZM19.8624 6.33548L19.1597 6.07324L18.9957 6.51281L19.3192 6.85262L19.8624 6.33548ZM19.7861 3.14175L20.4755 2.84628L20.3368 2.52279L19.9994 2.42271L19.7861 3.14175ZM16.4738 4.39552L16.2776 5.1194L16.6075 5.20881L16.8914 5.0185L16.4738 4.39552ZM10.5438 4.39552L10.1262 5.0185L10.4101 5.20881L10.74 5.1194L10.5438 4.39552ZM7.23147 3.14175L7.0182 2.42271L6.68077 2.52279L6.54212 2.84628L7.23147 3.14175ZM7.15523 6.33548L7.69842 6.85263L8.02194 6.51282L7.85789 6.07324L7.15523 6.33548ZM5.88451 9.53768L6.63453 9.53768L6.6345 9.53369L5.88451 9.53768ZM11.3401 15.4677L11.8791 15.9892L12.9247 14.9087L11.4326 14.7234L11.3401 15.4677ZM10.5438 17.6533H11.2938V17.627L11.292 17.6007L10.5438 17.6533ZM9.7938 20.9317V21.6817H11.2938V20.9317H9.7938ZM10.5438 18.3903L10.3283 17.6719C9.35464 17.964 8.69845 17.966 8.23947 17.8586C7.79015 17.7534 7.45844 17.527 7.15609 17.2246C7.0007 17.0692 6.85588 16.8966 6.70394 16.7063C6.56126 16.5276 6.39273 16.3076 6.23042 16.117C5.90249 15.7321 5.45618 15.2864 4.7957 15.1213L4.6138 15.8489L4.4319 16.5765C4.61857 16.6232 4.80761 16.7599 5.08856 17.0897C5.2307 17.2566 5.35999 17.4271 5.53168 17.6421C5.69411 17.8456 5.8802 18.0701 6.09543 18.2853C6.53433 18.7242 7.10272 19.1331 7.89764 19.3191C8.6829 19.5029 9.61511 19.452 10.7593 19.1087L10.5438 18.3903ZM16.4738 20.9317H17.2238V17.6533H16.4738H15.7238V20.9317H16.4738ZM16.4738 17.6533L17.2215 17.7121C17.2616 17.2021 17.1927 16.6893 17.0193 16.2079L16.3137 16.462L15.6081 16.7162C15.7093 16.9973 15.7495 17.2967 15.7261 17.5945L16.4738 17.6533ZM16.3137 16.462L17.0193 16.2079C16.846 15.7265 16.5721 15.2876 16.216 14.9202L15.6775 15.4423L15.139 15.9643C15.3469 16.1788 15.5068 16.4351 15.6081 16.7162L16.3137 16.462ZM15.6775 15.4423L15.7606 16.1876C17.1327 16.0347 18.6804 15.6879 19.8855 14.6746C21.127 13.6307 21.8831 11.9872 21.8831 9.51226H21.1331H20.3831C20.3831 11.6628 19.7414 12.836 18.9201 13.5266C18.0624 14.2478 16.8823 14.5533 15.5944 14.6969L15.6775 15.4423ZM21.1331 9.51226L21.8831 9.51212C21.8828 8.13688 21.3538 6.81438 20.4056 5.81833L19.8624 6.33548L19.3192 6.85262C20.002 7.56984 20.3829 8.52213 20.3831 9.5124L21.1331 9.51226ZM19.8624 6.33548L20.565 6.59771C21.0186 5.38223 20.9866 4.03873 20.4755 2.84628L19.7861 3.14175L19.0968 3.43721C19.4559 4.27511 19.4785 5.21916 19.1597 6.07324L19.8624 6.33548ZM19.7861 3.14175C19.9994 2.42271 19.9987 2.42249 19.9979 2.42228C19.9977 2.42221 19.997 2.42199 19.9965 2.42184C19.9955 2.42155 19.9945 2.42126 19.9934 2.42096C19.9914 2.42037 19.9893 2.41977 19.9871 2.41916C19.9827 2.41794 19.9781 2.41668 19.9732 2.4154C19.9634 2.41284 19.9525 2.41017 19.9406 2.40746C19.9168 2.40205 19.8889 2.39652 19.8568 2.39139C19.7924 2.38113 19.7118 2.37261 19.6144 2.36993C19.4193 2.36456 19.1605 2.38276 18.8347 2.45511C18.1843 2.59949 17.2706 2.95846 16.0562 3.77254L16.4738 4.39552L16.8914 5.0185C17.9897 4.2823 18.7322 4.01439 19.1598 3.91945C19.3729 3.87214 19.5086 3.86758 19.5732 3.86936C19.6057 3.87025 19.6212 3.87278 19.6205 3.87267C19.6203 3.87263 19.6161 3.87195 19.608 3.87013C19.604 3.86922 19.5991 3.86802 19.5932 3.86649C19.5903 3.86572 19.5871 3.86486 19.5837 3.86392C19.582 3.86344 19.5803 3.86294 19.5785 3.86242C19.5776 3.86216 19.5766 3.86189 19.5757 3.86162C19.5752 3.86148 19.5745 3.86128 19.5743 3.86121C19.5736 3.861 19.5729 3.86078 19.7861 3.14175ZM16.4738 4.39552L16.67 3.67163C14.5999 3.11059 12.4177 3.11059 10.3476 3.67163L10.5438 4.39552L10.74 5.1194C12.5532 4.628 14.4644 4.628 16.2776 5.1194L16.4738 4.39552ZM10.5438 4.39552L10.9614 3.77254C9.74696 2.95846 8.8333 2.59949 8.18292 2.45511C7.85706 2.38276 7.59829 2.36456 7.40317 2.36993C7.30581 2.37261 7.22516 2.38113 7.16082 2.39139C7.1287 2.39652 7.10076 2.40205 7.07697 2.40746C7.06508 2.41017 7.05424 2.41284 7.04444 2.4154C7.03955 2.41668 7.03491 2.41794 7.03053 2.41916C7.02835 2.41977 7.02623 2.42037 7.02417 2.42096C7.02314 2.42126 7.02213 2.42155 7.02113 2.42184C7.02064 2.42199 7.0199 2.42221 7.01965 2.42228C7.01892 2.42249 7.0182 2.42271 7.23147 3.14175C7.44475 3.86078 7.44403 3.861 7.44331 3.86121C7.44308 3.86128 7.44237 3.86148 7.4419 3.86162C7.44097 3.86189 7.44005 3.86216 7.43914 3.86242C7.43733 3.86294 7.43557 3.86344 7.43388 3.86392C7.43048 3.86486 7.42731 3.86572 7.42438 3.86649C7.4185 3.86802 7.41356 3.86922 7.40955 3.87013C7.40154 3.87195 7.39734 3.87263 7.39706 3.87267C7.39643 3.87278 7.41194 3.87025 7.44443 3.86936C7.50902 3.86758 7.64469 3.87214 7.85783 3.91945C8.28544 4.01439 9.02794 4.2823 10.1262 5.0185L10.5438 4.39552ZM7.23147 3.14175L6.54212 2.84628C6.03103 4.03873 5.99896 5.38223 6.45257 6.59771L7.15523 6.33548L7.85789 6.07324C7.53915 5.21916 7.56169 4.27511 7.92082 3.43721L7.23147 3.14175ZM7.15523 6.33548L6.61204 5.81832C5.65671 6.82175 5.12716 8.15621 5.13453 9.54166L5.88451 9.53768L6.6345 9.53369C6.6292 8.53607 7.01051 7.57517 7.69842 6.85263L7.15523 6.33548ZM5.88451 9.53768H5.13451C5.13451 11.998 5.8921 13.632 7.13212 14.6746C8.33452 15.6857 9.87926 16.042 11.2477 16.212L11.3401 15.4677L11.4326 14.7234C10.1409 14.563 8.95788 14.25 8.09749 13.5266C7.27471 12.8347 6.63451 11.6688 6.63451 9.53768H5.88451ZM11.3401 15.4677L10.8012 14.9461C10.4492 15.3098 10.1778 15.7435 10.0046 16.219L10.7093 16.4757L11.4139 16.7325C11.5151 16.4548 11.6736 16.2016 11.8791 15.9892L11.3401 15.4677ZM10.7093 16.4757L10.0046 16.219C9.83133 16.6945 9.76014 17.2011 9.79565 17.7059L10.5438 17.6533L11.292 17.6007C11.2712 17.3059 11.3128 17.0101 11.4139 16.7325L10.7093 16.4757ZM10.5438 17.6533H9.7938V20.9317H10.5438H11.2938V17.6533H10.5438Z" fill="#EEEEEE"/>
</svg>
