<svg width="25" height="25" viewBox="0 0 25 25" fill="none" xmlns="http://www.w3.org/2000/svg">
<path d="M16.4923 8.85889C17.9319 8.85889 19.3127 9.4308 20.3307 10.4488C21.3487 11.4668 21.9206 12.8475 21.9206 14.2872V20.6202H18.3017V14.2872C18.3017 13.8073 18.1111 13.3471 17.7717 13.0077C17.4324 12.6684 16.9722 12.4778 16.4923 12.4778C16.0124 12.4778 15.5521 12.6684 15.2128 13.0077C14.8735 13.3471 14.6828 13.8073 14.6828 14.2872V20.6202H11.064V14.2872C11.064 12.8475 11.6359 11.4668 12.6539 10.4488C13.6719 9.4308 15.0526 8.85889 16.4923 8.85889Z" stroke="#1D1D1D" stroke-width="1.5" stroke-linecap="round"/>
<path d="M7.44516 9.76361H3.82629V20.6202H7.44516V9.76361Z" stroke="#1D1D1D" stroke-width="1.5" stroke-linecap="round"/>
<path d="M5.63573 7.04944C6.63505 7.04944 7.44516 6.23933 7.44516 5.24001C7.44516 4.24068 6.63505 3.43057 5.63573 3.43057C4.63641 3.43057 3.82629 4.24068 3.82629 5.24001C3.82629 6.23933 4.63641 7.04944 5.63573 7.04944Z" stroke="#1D1D1D" stroke-width="1.5" stroke-linecap="round" stroke-linejoin="round"/>
</svg>
