<svg width="25" height="25" viewBox="0 0 25 25" fill="none" xmlns="http://www.w3.org/2000/svg">
<path d="M16.4922 8.85889C17.9319 8.85889 19.3126 9.4308 20.3306 10.4488C21.3486 11.4668 21.9205 12.8475 21.9205 14.2872V20.6202H18.3017V14.2872C18.3017 13.8073 18.111 13.3471 17.7717 13.0077C17.4324 12.6684 16.9721 12.4778 16.4922 12.4778C16.0123 12.4778 15.5521 12.6684 15.2128 13.0077C14.8734 13.3471 14.6828 13.8073 14.6828 14.2872V20.6202H11.0639V14.2872C11.0639 12.8475 11.6358 11.4668 12.6538 10.4488C13.6719 9.4308 15.0526 8.85889 16.4922 8.85889Z" stroke="#EEEEEE" stroke-width="1.5" stroke-linecap="round"/>
<path d="M7.44507 9.76361H3.8262V20.6202H7.44507V9.76361Z" stroke="#EEEEEE" stroke-width="1.5" stroke-linecap="round"/>
<path d="M5.6357 7.04944C6.63502 7.04944 7.44513 6.23933 7.44513 5.24001C7.44513 4.24068 6.63502 3.43057 5.6357 3.43057C4.63638 3.43057 3.82626 4.24068 3.82626 5.24001C3.82626 6.23933 4.63638 7.04944 5.6357 7.04944Z" stroke="#EEEEEE" stroke-width="1.5" stroke-linecap="round" stroke-linejoin="round"/>
</svg>
