<svg width="100" height="28" viewBox="0 0 100 28" fill="none" xmlns="http://www.w3.org/2000/svg">
<path d="M4.52441 15.4067C7.84615 15.4067 9.1747 17.274 9.1748 19.4106V19.6265H7.27148V19.4292C7.27148 17.9568 6.62543 17.1841 4.4707 17.1841C2.69309 17.1841 1.97461 17.6872 1.97461 18.7466C1.97463 19.8418 2.45961 20.1473 4.11133 20.5063L6.1582 20.937C8.42067 21.4039 9.4082 22.5356 9.4082 24.3491C9.40807 26.2344 8.0439 27.7964 4.97363 27.7964C1.50828 27.7964 0.000148331 26.1985 0 23.8823V23.5767H1.90332V23.7739C1.90332 25.2642 2.53143 26.019 5.04492 26.019C6.82257 26.019 7.46973 25.5337 7.46973 24.4204C7.46967 23.3253 7.11007 22.9303 5.26074 22.5532L3.21387 22.1401C1.14896 21.7451 0.0352024 20.7397 0.0351562 18.8364C0.0351562 17.0588 1.41816 15.4068 4.52441 15.4067ZM21.7656 27.6167H19.665L18.4434 24.4927H12.8594L11.6387 27.6167H9.60938L14.2959 15.5864H17.0791L21.7656 27.6167ZM27.7412 15.5864C30.3986 15.5864 32.0683 16.8969 32.0684 19.1772C32.0684 21.1704 30.8473 22.3732 28.7285 22.481V22.6255C29.6083 22.9128 30.1293 23.451 30.5781 24.2769L32.374 27.6167H30.1299L28.4238 24.5103C27.8672 23.4688 27.3642 22.9839 25.9277 22.9839H24.5088V27.6167H22.5703V15.5864H27.7412ZM35.416 20.7222H38.1992L41.3594 15.5864H43.5684L39.833 21.5474L43.5508 27.6167H41.3242L38.2354 22.5894H35.416V27.6167H33.4766V15.5864H35.416V20.7222ZM55.8545 27.6167H53.7529L52.5322 24.4927H46.9482L45.7266 27.6167H43.6982L48.3848 15.5864H51.168L55.8545 27.6167ZM61.8301 15.5864C64.4874 15.5865 66.1571 16.897 66.1572 19.1772C66.1572 21.1704 64.9362 22.3732 62.8174 22.481V22.6255C63.6972 22.9128 64.2181 23.4509 64.667 24.2769L66.4629 27.6167H64.2178L62.5117 24.5103C61.9552 23.4691 61.4527 22.984 60.0166 22.9839H58.5977V27.6167H56.6582V15.5864H61.8301ZM14.7988 19.5728L13.542 22.7505H17.7617L16.5049 19.5728L15.7324 17.3462H15.5889L14.7988 19.5728ZM48.8867 19.5728L47.6299 22.7505H51.8496L50.5928 19.5728L49.8213 17.3462H49.6768L48.8867 19.5728ZM24.5088 21.3862H27.9746C29.5368 21.3862 30.1299 20.8114 30.1299 19.3569C30.1299 17.9385 29.5368 17.3276 27.9746 17.3276H24.5088V21.3862ZM58.5977 21.3862H62.0635C63.6255 21.3862 64.2178 20.8113 64.2178 19.3569C64.2177 17.9385 63.6255 17.3277 62.0635 17.3276H58.5977V21.3862ZM4.52441 0.203613C7.84623 0.203613 9.17476 2.07078 9.1748 4.20752V4.42334H7.27148V4.2251C7.27134 2.75301 6.62519 1.98096 4.4707 1.98096C2.69309 1.98097 1.97461 2.48406 1.97461 3.54346C1.97467 4.63856 2.45966 4.94415 4.11133 5.30322L6.1582 5.73389C8.42067 6.20075 9.4082 7.33243 9.4082 9.146C9.408 11.0312 8.04382 12.5932 4.97363 12.5933C1.50811 12.5933 0 10.9946 0 8.67822V8.37354H1.90332V8.5708C1.90332 10.0611 2.53143 10.8158 5.04492 10.8159C6.82257 10.8159 7.46973 10.3306 7.46973 9.21729C7.4697 8.12204 7.11016 7.72716 5.26074 7.3501L3.21387 6.93701C1.14902 6.54199 0.0352606 5.53648 0.0351562 3.6333C0.0351562 1.85568 1.41816 0.203688 4.52441 0.203613ZM24.666 7.70947C24.6661 9.88188 25.4922 10.7261 27.8623 10.7261C30.2141 10.726 31.0399 9.88176 31.04 7.70947V0.383301H32.9795V7.70947C32.9793 10.7796 31.112 12.5931 27.8623 12.5933C24.5944 12.5933 22.7443 10.7797 22.7441 7.70947V0.383301H24.666V7.70947ZM12.7432 5.48291H18.8125V0.383301H20.752V12.4136H18.8125V7.22412H12.7432V12.4136H10.8037V0.383301H12.7432V5.48291ZM40.5156 0.383301C42.8677 0.383331 44.286 1.35255 44.2861 3.38135C44.2861 4.78188 43.4963 5.73382 41.9521 5.96729V6.11084C43.7836 6.34431 44.7168 7.52976 44.7168 9.10986C44.7167 11.1566 43.2629 12.4134 40.7314 12.4136H34.9854V0.383301H40.5156ZM48.2871 5.48291H54.3564V0.383301H56.2959V12.4136H54.3564V7.22412H48.2871V12.4136H46.3477V0.383301H48.2871V5.48291ZM62.5977 0.383301C66.3145 0.383301 68.6844 2.68123 68.6846 6.39795C68.6846 10.1149 66.3146 12.4136 62.5977 12.4136H58.3242V0.383301H62.5977ZM78.7793 2.12451H72.1172V5.48291H78.5098V7.24268H72.1172V10.6714H78.7793V12.4136H70.1777V0.383301H78.7793V2.12451ZM88.9492 2.12451H82.2881V5.48291H88.6807V7.24268H82.2881V10.6714H88.9492V12.4136H80.3486V0.383301H88.9492V2.12451ZM95.6367 0.383301C98.1505 0.383392 100 1.87387 100 4.45947C99.9998 7.0448 98.1503 8.53458 95.6367 8.53467H92.458V12.4136H90.5186V0.383301H95.6367ZM36.9238 10.6714H40.6768C42.1312 10.6714 42.7598 10.2589 42.7598 8.84033C42.7598 7.40384 42.1312 6.99072 40.6768 6.99072H36.9238V10.6714ZM60.2637 10.6714H62.5977C65.4706 10.6714 66.6201 9.48641 66.6201 6.39795C66.62 3.30975 65.4705 2.12451 62.5977 2.12451H60.2637V10.6714ZM92.458 6.79346H95.8701C97.45 6.79341 98.078 6.18285 98.0781 4.45947C98.0781 2.73576 97.4501 2.12456 95.8701 2.12451H92.458V6.79346ZM36.9238 5.37451H40.3359C41.7904 5.37451 42.3652 4.97932 42.3652 3.7583C42.3651 2.51967 41.8439 2.12451 40.3896 2.12451H36.9238V5.37451Z" fill="#EEEEEE"/>
</svg>
