<svg width="67" height="19" viewBox="0 0 67 19" fill="none" xmlns="http://www.w3.org/2000/svg">
<path d="M3.02441 10.1602C5.24429 10.1602 6.13272 11.408 6.13281 12.8359V12.9805H4.86035V12.8486C4.86035 11.8646 4.42828 11.3486 2.98828 11.3486C1.80037 11.3487 1.32031 11.6846 1.32031 12.3926C1.32044 13.1242 1.64449 13.3284 2.74805 13.5684L4.11621 13.8564C5.62804 14.1684 6.28794 14.924 6.28809 16.1357C6.28809 17.3957 5.37622 18.4404 3.32422 18.4404C1.00838 18.4404 2.732e-05 17.3721 0 15.8242V15.6201H1.27246V15.752C1.27246 16.7479 1.69234 17.2519 3.37207 17.252C4.55985 17.252 4.99203 16.9283 4.99219 16.1846C4.99219 15.4526 4.75237 15.1885 3.5166 14.9365L2.14844 14.6602C0.768437 14.3962 0.0244141 13.7241 0.0244141 12.4521C0.024418 11.2642 0.948418 10.1602 3.02441 10.1602ZM14.5469 18.3203H13.1426L12.3262 16.2324H8.59473L7.77832 18.3203H6.42285L9.55469 10.2803H11.4141L14.5469 18.3203ZM18.54 10.2803C20.3159 10.2803 21.4314 11.156 21.4316 12.6797C21.4316 14.0117 20.6161 14.8157 19.2002 14.8877V14.9844C19.7881 15.1764 20.1366 15.536 20.4365 16.0879L21.6357 18.3203H20.1357L18.9961 16.2441C18.6241 15.5482 18.2881 15.2246 17.3281 15.2246H16.3799V18.3203H15.084V10.2803H18.54ZM23.6689 13.7119H25.5293L27.6416 10.2803H29.1172L26.6211 14.2637L29.1055 18.3203H27.6172L25.5527 14.96H23.6689V18.3203H22.373V10.2803H23.6689V13.7119ZM37.3281 18.3203H35.9238L35.1074 16.2324H31.376L30.5596 18.3203H29.2041L32.3359 10.2803H34.1953L37.3281 18.3203ZM41.3213 10.2803C43.0971 10.2803 44.2127 11.156 44.2129 12.6797C44.2129 14.0117 43.3974 14.8157 41.9814 14.8877V14.9844C42.5693 15.1764 42.9178 15.536 43.2178 16.0879L44.417 18.3203H42.917L41.7773 16.2441C41.4053 15.5482 41.0694 15.2246 40.1094 15.2246H39.1611V18.3203H37.8652V10.2803H41.3213ZM9.89062 12.9443L9.05078 15.0684H11.8701L11.0303 12.9443L10.5146 11.4561H10.418L9.89062 12.9443ZM32.6719 12.9443L31.832 15.0684H34.6514L33.8115 12.9443L33.2959 11.4561H33.1992L32.6719 12.9443ZM16.3799 14.1562H18.6963C19.7402 14.1562 20.1357 13.7717 20.1357 12.7998C20.1356 11.8521 19.74 11.4444 18.6963 11.4443H16.3799V14.1562ZM39.1611 14.1562H41.4775C42.5214 14.1562 42.917 13.7717 42.917 12.7998C42.9169 11.8521 42.5213 11.4444 41.4775 11.4443H39.1611V14.1562ZM3.02441 0C5.24421 6.4327e-06 6.13266 1.24794 6.13281 2.67578V2.82031H4.86035V2.68848C4.86035 1.70448 4.42828 1.18848 2.98828 1.18848C1.80037 1.1885 1.32031 1.52444 1.32031 2.23242C1.32039 2.96413 1.64444 3.16826 2.74805 3.4082L4.11621 3.69629C5.62821 4.00829 6.28809 4.76456 6.28809 5.97656C6.28789 7.23638 5.376 8.28027 3.32422 8.28027C1.00835 8.28022 0 7.21202 0 5.66406V5.45996H1.27246V5.5918C1.27246 6.58773 1.69234 7.09173 3.37207 7.0918C4.55993 7.0918 4.99209 6.76823 4.99219 6.02441C4.99219 5.29246 4.75239 5.02835 3.5166 4.77637L2.14844 4.5C0.768437 4.236 0.0244141 3.56399 0.0244141 2.29199C0.0244973 1.10405 0.948507 0 3.02441 0ZM16.4844 5.0166C16.4845 6.46828 17.0373 7.03223 18.6211 7.03223C20.1927 7.03214 20.745 6.46816 20.7451 5.0166V0.120117H22.041V5.0166C22.0408 7.06822 20.7927 8.28014 18.6211 8.28027C16.4373 8.28027 15.2013 7.06834 15.2012 5.0166V0.120117H16.4844V5.0166ZM8.5166 3.52832H12.5732V0.120117H13.8691V8.16016H12.5732V4.69238H8.5166V8.16016H7.2207V0.120117H8.5166V3.52832ZM27.0771 0.120117C28.649 0.120163 29.5966 0.768166 29.5967 2.12402C29.5967 3.06 29.0691 3.69652 28.0371 3.85254V3.94824C29.261 4.10428 29.8848 4.89619 29.8848 5.95215C29.8848 7.32015 28.9127 8.16016 27.2207 8.16016H23.3809V0.120117H27.0771ZM32.2705 3.52832H36.3271V0.120117H37.623V8.16016H36.3271V4.69238H32.2705V8.16016H30.9746V0.120117H32.2705V3.52832ZM41.835 0.120117C44.3188 0.120251 45.9023 1.65673 45.9023 4.14062C45.9021 6.62425 44.3186 8.16002 41.835 8.16016H38.9785V0.120117H41.835ZM52.6484 1.28418H48.1963V3.52832H52.4688V4.7041H48.1963V6.99609H52.6484V8.16016H46.9004V0.120117H52.6484V1.28418ZM59.4453 1.28418H54.9932V3.52832H59.2656V4.7041H54.9932V6.99609H59.4453V8.16016H53.6973V0.120117H59.4453V1.28418ZM63.9141 0.120117C65.5939 0.120117 66.8299 1.116 66.8301 2.84375C66.8301 4.57175 65.5941 5.56836 63.9141 5.56836H61.79V8.16016H60.4941V0.120117H63.9141ZM24.6768 6.99609H27.1846C28.1565 6.99609 28.5771 6.72022 28.5771 5.77246C28.5771 4.81246 28.1566 4.53613 27.1846 4.53613H24.6768V6.99609ZM40.2744 6.99609H41.835C43.7546 6.996 44.5223 6.20417 44.5225 4.14062C44.5225 2.07674 43.7547 1.28427 41.835 1.28418H40.2744V6.99609ZM61.79 4.4043H64.0703C65.1263 4.40428 65.5459 3.99573 65.5459 2.84375C65.5458 1.69208 65.1262 1.28419 64.0703 1.28418H61.79V4.4043ZM24.6768 3.45605H26.957C27.929 3.45605 28.3125 3.19196 28.3125 2.37598C28.3124 1.54818 27.965 1.28421 26.9932 1.28418H24.6768V3.45605Z" fill="black"/>
</svg>
